<?xml version="1.0" encoding="UTF-8"?>
<!DOCTYPE svg PUBLIC "-//W3C//DTD SVG 1.1//EN" "http://www.w3.org/Graphics/SVG/1.1/DTD/svg11.dtd">
<svg xmlns="http://www.w3.org/2000/svg" version="1.1" width="2000px" height="1500px" style="shape-rendering:geometricPrecision; text-rendering:geometricPrecision; image-rendering:optimizeQuality; fill-rule:evenodd; clip-rule:evenodd" xmlns:xlink="http://www.w3.org/1999/xlink">
<g><path style="opacity:1" fill="#fefefe" d="M -0.5,-0.5 C 666.167,-0.5 1332.83,-0.5 1999.5,-0.5C 1999.5,499.5 1999.5,999.5 1999.5,1499.5C 1332.83,1499.5 666.167,1499.5 -0.5,1499.5C -0.5,999.5 -0.5,499.5 -0.5,-0.5 Z"/></g>
<g><path style="opacity:1" fill="#050505" d="M 489.5,489.5 C 599.05,485.511 682.216,529.844 739,622.5C 778.004,696.982 782.004,773.315 751,851.5C 714.834,930.987 654.334,981.487 569.5,1003C 466.454,1022.86 380.287,993.692 311,915.5C 255.614,844.883 238.947,765.883 261,678.5C 282.879,607.963 326.046,554.796 390.5,519C 421.77,502.962 454.77,493.128 489.5,489.5 Z"/></g>
<g><path style="opacity:1" fill="#fefefe" d="M 485.5,504.5 C 581.856,498.606 658.356,534.272 715,611.5C 761.821,684.321 769.821,761.321 739,842.5C 707.246,914.584 653.746,962.417 578.5,986C 479.413,1009.63 395.246,984.462 326,910.5C 272.049,844.584 254.716,769.917 274,686.5C 300.216,598.617 357.05,540.784 444.5,513C 458.132,509.308 471.798,506.475 485.5,504.5 Z"/></g>
<g><path style="opacity:1" fill="#010101" d="M 501.5,595.5 C 547.96,594.166 578.127,615.5 592,659.5C 594.051,671.88 593.717,684.213 591,696.5C 585.049,716.686 577.716,736.353 569,755.5C 552.682,790.97 535.182,825.803 516.5,860C 513.007,862.136 509.674,861.969 506.5,859.5C 486.752,824.003 468.585,787.67 452,750.5C 444.342,732.527 437.676,714.194 432,695.5C 425.075,650.179 442.575,618.346 484.5,600C 490.175,598 495.842,596.5 501.5,595.5 Z"/></g>
<g><path style="opacity:1" fill="#050505" d="M 1163.5,598.5 C 1164.83,598.5 1166.17,598.5 1167.5,598.5C 1167.33,647.834 1167.5,697.168 1168,746.5C 1172.86,748.341 1177.69,750.175 1182.5,752C 1181.69,754.088 1180.69,756.088 1179.5,758C 1160.17,758.667 1140.83,758.667 1121.5,758C 1119.8,755.765 1118.8,753.265 1118.5,750.5C 1124.26,749.643 1129.93,748.31 1135.5,746.5C 1136.33,740.528 1136.83,734.528 1137,728.5C 1137.67,701.5 1137.67,674.5 1137,647.5C 1136.91,636.428 1136.08,625.428 1134.5,614.5C 1129.15,613.441 1123.82,612.275 1118.5,611C 1117.78,608.539 1117.12,606.039 1116.5,603.5C 1132.28,601.687 1147.95,600.02 1163.5,598.5 Z"/></g>
<g><path style="opacity:1" fill="#020202" d="M 1293.5,599.5 C 1295.16,629.986 1296.16,660.653 1296.5,691.5C 1296.33,709.836 1296.5,728.17 1297,746.5C 1302.01,748.379 1307.18,749.879 1312.5,751C 1313.24,753.405 1312.58,755.572 1310.5,757.5C 1291.51,758.666 1272.51,758.833 1253.5,758C 1251.8,755.765 1250.8,753.265 1250.5,750.5C 1255.77,749.182 1261.11,748.182 1266.5,747.5C 1267.8,703.165 1267.8,658.832 1266.5,614.5C 1260.12,613.779 1253.79,612.779 1247.5,611.5C 1247.15,608.762 1246.48,606.096 1245.5,603.5C 1261.5,602.093 1277.5,600.759 1293.5,599.5 Z"/></g>
<g><path style="opacity:1" fill="#050505" d="M 1343.5,614.5 C 1358.65,614.145 1365.81,621.478 1365,636.5C 1360.02,648.746 1351.52,652.246 1339.5,647C 1327.87,634.507 1329.2,623.673 1343.5,614.5 Z"/></g>
<g><path style="opacity:1" fill="#030303" d="M 888.5,653.5 C 888.44,652.957 888.107,652.624 887.5,652.5C 886.174,667.328 886.174,681.995 887.5,696.5C 887.836,713.205 888.836,729.872 890.5,746.5C 897.355,748.604 904.355,749.938 911.5,750.5C 910.833,753.167 910.167,755.833 909.5,758.5C 890.164,758.667 870.83,758.5 851.5,758C 850.133,755.699 849.466,753.199 849.5,750.5C 856.199,749.383 862.866,748.05 869.5,746.5C 871.772,725.243 872.772,703.91 872.5,682.5C 872.618,665.465 871.951,648.465 870.5,631.5C 864.022,629.047 857.355,627.213 850.5,626C 849.402,623.502 849.568,621.002 851,618.5C 868.102,617.176 885.269,617.176 902.5,618.5C 923.991,649.495 946.824,679.495 971,708.5C 971.235,682.134 970.402,655.801 968.5,629.5C 962.513,628.337 956.513,627.171 950.5,626C 949.601,623.462 949.934,620.962 951.5,618.5C 969.154,617.5 986.821,617.167 1004.5,617.5C 1004.76,619.937 1005.42,622.271 1006.5,624.5C 1000.39,626.946 994.052,628.612 987.5,629.5C 985.705,673.475 985.038,717.475 985.5,761.5C 980.456,761.827 975.456,761.494 970.5,760.5C 961.246,746.991 951.746,733.657 942,720.5C 924.158,698.136 906.325,675.803 888.5,653.5 Z"/></g>
<g><path style="opacity:1" fill="#020202" d="M 1396.5,617.5 C 1427.84,617.333 1459.17,617.5 1490.5,618C 1492.43,621.194 1494.1,624.527 1495.5,628C 1482.68,649.49 1469.85,670.99 1457,692.5C 1447.38,709.396 1438.55,726.73 1430.5,744.5C 1443,746.092 1455.33,745.258 1467.5,742C 1470.33,740.5 1472.5,738.333 1474,735.5C 1477.63,729.08 1481.13,722.58 1484.5,716C 1489.18,716.496 1493.84,717.329 1498.5,718.5C 1495.19,731.703 1492.53,745.036 1490.5,758.5C 1459.16,758.667 1427.83,758.5 1396.5,758C 1393.6,755.603 1391.27,752.77 1389.5,749.5C 1414.04,712.427 1436.04,673.76 1455.5,633.5C 1446.52,632.335 1437.52,632.168 1428.5,633C 1423.31,632.938 1419.47,635.105 1417,639.5C 1413.88,645.708 1411.04,652.041 1408.5,658.5C 1404.22,659.492 1399.88,659.826 1395.5,659.5C 1396.09,645.508 1396.42,631.508 1396.5,617.5 Z"/></g>
<g><path style="opacity:1" fill="#fdfdfd" d="M 502.5,638.5 C 526.574,635.781 542.407,645.781 550,668.5C 553.234,692.544 543.401,708.377 520.5,716C 496.016,719.166 480.183,709 473,685.5C 470.699,662.083 480.532,646.416 502.5,638.5 Z"/></g>
<g><path style="opacity:1" fill="#3b3b3b" d="M 1293.5,599.5 C 1294.21,598.596 1295.21,598.263 1296.5,598.5C 1296.5,629.5 1296.5,660.5 1296.5,691.5C 1296.16,660.653 1295.16,629.986 1293.5,599.5 Z"/></g>
<g><path style="opacity:1" fill="#464646" d="M 888.5,653.5 C 887.504,667.657 887.171,681.99 887.5,696.5C 886.174,681.995 886.174,667.328 887.5,652.5C 888.107,652.624 888.44,652.957 888.5,653.5 Z"/></g>
<g><path style="opacity:1" fill="#b0b0b0" d="M 1667.5,664.5 C 1668.17,670.5 1668.83,676.5 1669.5,682.5C 1669.22,683.289 1668.72,683.956 1668,684.5C 1667.5,677.842 1667.33,671.175 1667.5,664.5 Z"/></g>
<g><path style="opacity:1" fill="#040404" d="M 1058.5,665.5 C 1069.12,664.208 1079.12,666.041 1088.5,671C 1096.36,678.253 1099.7,687.253 1098.5,698C 1097.59,711.827 1097.42,725.661 1098,739.5C 1098.96,740.894 1100.29,741.561 1102,741.5C 1104.87,740.647 1107.71,739.647 1110.5,738.5C 1112.12,741.17 1113.45,744.004 1114.5,747C 1105.08,756.253 1093.74,760.587 1080.5,760C 1075.3,757.629 1071.63,753.796 1069.5,748.5C 1058.74,758.475 1046.07,762.308 1031.5,760C 1019.39,753.041 1014.55,742.541 1017,728.5C 1021.07,720.448 1027.57,715.281 1036.5,713C 1047.69,710.442 1058.86,707.942 1070,705.5C 1073.17,686.661 1065.67,679.828 1047.5,685C 1039.68,687.495 1032.18,690.662 1025,694.5C 1022.78,691.944 1020.95,689.111 1019.5,686C 1031.13,676.517 1044.13,669.684 1058.5,665.5 Z"/></g>
<g><path style="opacity:1" fill="#020202" d="M 1667.5,664.5 C 1667.33,671.175 1667.5,677.842 1668,684.5C 1668.72,683.956 1669.22,683.289 1669.5,682.5C 1681.98,666.727 1697.65,662.227 1716.5,669C 1724.07,674.249 1728.9,681.416 1731,690.5C 1731.5,709.497 1731.67,728.497 1731.5,747.5C 1736.9,748.516 1742.23,749.85 1747.5,751.5C 1746.5,753.5 1745.5,755.5 1744.5,757.5C 1726.18,758.5 1707.85,758.833 1689.5,758.5C 1688.83,755.833 1688.17,753.167 1687.5,750.5C 1692.6,749.578 1697.6,748.245 1702.5,746.5C 1703.67,731.845 1703.83,717.178 1703,702.5C 1701.05,694.406 1696.21,688.906 1688.5,686C 1686.36,685.365 1684.36,685.699 1682.5,687C 1674.79,693.048 1669.95,700.882 1668,710.5C 1667.33,722.5 1667.33,734.5 1668,746.5C 1673.26,748.141 1678.43,749.975 1683.5,752C 1682.33,754.007 1681.66,756.173 1681.5,758.5C 1662.82,758.833 1644.15,758.5 1625.5,757.5C 1624.5,755.5 1623.5,753.5 1622.5,751.5C 1627.79,750.145 1632.96,748.478 1638,746.5C 1639.53,727.193 1639.86,707.86 1639,688.5C 1638.77,685.905 1638.27,683.405 1637.5,681C 1632.17,679.667 1626.83,678.333 1621.5,677C 1620.07,674.31 1619.07,671.477 1618.5,668.5C 1634.9,667.894 1651.23,666.56 1667.5,664.5 Z"/></g>
<g><path style="opacity:1" fill="#020202" d="M 1359.5,665.5 C 1361.17,665.5 1362.83,665.5 1364.5,665.5C 1363.2,692.833 1363.2,720.166 1364.5,747.5C 1370.41,748.228 1376.08,749.728 1381.5,752C 1380.69,754.088 1379.69,756.088 1378.5,758C 1359.17,758.667 1339.83,758.667 1320.5,758C 1319.21,755.978 1318.21,753.811 1317.5,751.5C 1322.73,749.691 1328.07,748.191 1333.5,747C 1334.58,746.326 1335.25,745.326 1335.5,744C 1336.61,722.846 1336.61,701.68 1335.5,680.5C 1330.06,680.056 1324.72,679.056 1319.5,677.5C 1318.69,675.085 1317.69,672.751 1316.5,670.5C 1331.04,669.33 1345.37,667.663 1359.5,665.5 Z"/></g>
<g><path style="opacity:1" fill="#040404" d="M 1553.5,665.5 C 1594.8,664.628 1613.3,684.628 1609,725.5C 1604.19,745.97 1591.36,757.803 1570.5,761C 1538.96,764.113 1519.8,750.28 1513,719.5C 1511.27,689.91 1524.77,671.91 1553.5,665.5 Z"/></g>
<g><path style="opacity:1" fill="#030303" d="M 1181.5,668.5 C 1199.16,669.37 1216.83,669.703 1234.5,669.5C 1235.6,671.642 1236.6,673.808 1237.5,676C 1231.54,677.878 1225.54,679.545 1219.5,681C 1210.72,687.612 1202.72,695.112 1195.5,703.5C 1203.51,718.863 1213.01,733.197 1224,746.5C 1229.46,747.791 1234.79,749.457 1240,751.5C 1240.02,753.797 1239.85,756.131 1239.5,758.5C 1224.15,758.833 1208.82,758.499 1193.5,757.5C 1185.75,742.341 1177.75,727.341 1169.5,712.5C 1175.49,706.014 1181.65,699.681 1188,693.5C 1191.42,689.916 1194.25,685.916 1196.5,681.5C 1191.27,679.691 1185.93,678.191 1180.5,677C 1180.04,676.586 1179.71,676.086 1179.5,675.5C 1180.58,673.271 1181.24,670.937 1181.5,668.5 Z"/></g>
<g><path style="opacity:1" fill="#fbfbfb" d="M 1553.5,677.5 C 1560.25,676.295 1566.08,677.962 1571,682.5C 1580.04,697.62 1583.04,713.953 1580,731.5C 1578.97,736.921 1576.97,741.921 1574,746.5C 1563.98,753.155 1555.98,751.155 1550,740.5C 1547.94,736.323 1546.27,731.99 1545,727.5C 1543.55,716.536 1543.21,705.536 1544,694.5C 1545.14,687.546 1548.3,681.88 1553.5,677.5 Z"/></g>
<g><path style="opacity:1" fill="#f8f8f8" d="M 1067.5,718.5 C 1068.47,720.948 1068.81,723.615 1068.5,726.5C 1068.82,729.898 1068.49,733.232 1067.5,736.5C 1061.74,741.084 1055.4,742.584 1048.5,741C 1044.14,736.141 1043.48,730.807 1046.5,725C 1048.27,723.561 1050.27,722.561 1052.5,722C 1057.39,720.362 1062.39,719.195 1067.5,718.5 Z"/></g>
<g><path style="opacity:1" fill="#5a5a5a" d="M 1067.5,718.5 C 1067.56,717.957 1067.89,717.624 1068.5,717.5C 1069.8,720.645 1069.8,723.645 1068.5,726.5C 1068.81,723.615 1068.47,720.948 1067.5,718.5 Z"/></g>
<g><path style="opacity:1" fill="#0b0b0b" d="M 910.5,800.5 C 913.518,800.335 916.518,800.502 919.5,801C 916.305,817.696 914.139,834.529 913,851.5C 916.581,846.672 919.915,841.672 923,836.5C 925.842,832.957 929.009,829.79 932.5,827C 936.746,826.876 939.913,828.709 942,832.5C 939.961,847.747 938.461,863.08 937.5,878.5C 934.833,878.5 932.167,878.5 929.5,878.5C 930.708,865.623 932.374,852.79 934.5,840C 934.691,838.027 934.024,836.527 932.5,835.5C 929.567,836.93 927.067,838.93 925,841.5C 919.495,849.84 914.495,858.507 910,867.5C 909.501,871.152 909.335,874.818 909.5,878.5C 906.833,878.5 904.167,878.5 901.5,878.5C 905.34,852.591 908.34,826.591 910.5,800.5 Z"/></g>
<g><path style="opacity:1" fill="#090909" d="M 872.5,806.5 C 880.126,805.764 887.459,806.764 894.5,809.5C 894.833,809.833 895.167,810.167 895.5,810.5C 894.423,812.729 893.756,815.063 893.5,817.5C 890.092,816.633 886.758,815.467 883.5,814C 873.566,811.295 867.233,814.795 864.5,824.5C 864.692,826.577 865.192,828.577 866,830.5C 871.723,835.611 877.89,840.111 884.5,844C 892.854,852.415 893.688,861.581 887,871.5C 874.73,881.07 861.896,881.903 848.5,874C 849.42,871.159 850.42,868.326 851.5,865.5C 859.141,872.832 867.807,874.332 877.5,870C 883.391,866.064 884.891,860.897 882,854.5C 876.277,849.389 870.11,844.889 863.5,841C 853.863,830.673 854.196,820.673 864.5,811C 867.099,809.205 869.766,807.705 872.5,806.5 Z"/></g>
<g><path style="opacity:1" fill="#0e0e0e" d="M 1115.5,848.5 C 1116.4,847.791 1116.74,846.791 1116.5,845.5C 1103.99,845.171 1091.66,845.505 1079.5,846.5C 1077.24,856.901 1076.24,867.567 1076.5,878.5C 1073.5,878.5 1070.5,878.5 1067.5,878.5C 1070.88,854.914 1073.71,831.247 1076,807.5C 1078.72,806.556 1081.55,806.223 1084.5,806.5C 1083.3,817.179 1081.96,827.845 1080.5,838.5C 1092.83,838.5 1105.17,838.5 1117.5,838.5C 1118.21,827.797 1119.21,817.13 1120.5,806.5C 1123.17,806.5 1125.83,806.5 1128.5,806.5C 1125.53,830.458 1122.87,854.458 1120.5,878.5C 1117.5,878.5 1114.5,878.5 1111.5,878.5C 1113.11,868.54 1114.45,858.54 1115.5,848.5 Z"/></g>
<g><path style="opacity:1" fill="#0c0c0c" d="M 972.5,826.5 C 979.519,825.61 985.019,827.944 989,833.5C 993.376,849.982 989.542,864.149 977.5,876C 971.307,880.069 964.973,880.403 958.5,877C 956.383,875.269 954.883,873.102 954,870.5C 950.622,857.352 952.955,845.352 961,834.5C 964.464,831.195 968.297,828.528 972.5,826.5 Z"/></g>
<g><path style="opacity:1" fill="#0c0c0c" d="M 1154.5,826.5 C 1168.85,825.338 1173.35,831.338 1168,844.5C 1161.51,851.333 1153.67,856 1144.5,858.5C 1142.04,870.554 1146.37,874.387 1157.5,870C 1159.68,867.65 1162.02,865.483 1164.5,863.5C 1165.83,864.167 1166.83,865.167 1167.5,866.5C 1161.44,877.043 1152.78,880.543 1141.5,877C 1139.62,875.457 1138.12,873.624 1137,871.5C 1131.81,851.925 1137.64,836.925 1154.5,826.5 Z"/></g>
<g><path style="opacity:1" fill="#9e9e9e" d="M 1186.5,827.5 C 1188.61,826.532 1190.94,826.198 1193.5,826.5C 1193.74,827.791 1193.4,828.791 1192.5,829.5C 1191.08,827.692 1189.08,827.025 1186.5,827.5 Z"/></g>
<g><path style="opacity:1" fill="#0d0d0d" d="M 1233.5,826.5 C 1248.08,826.223 1252.25,832.557 1246,845.5C 1239.15,851.511 1231.32,855.844 1222.5,858.5C 1220.3,865.596 1222.63,870.263 1229.5,872.5C 1234.71,871.393 1238.71,868.559 1241.5,864C 1243.91,863.221 1245.57,864.054 1246.5,866.5C 1240.8,876.356 1232.46,880.189 1221.5,878C 1216.85,875.209 1214.35,871.042 1214,865.5C 1212.99,854.212 1215.66,843.878 1222,834.5C 1225.48,831.161 1229.32,828.494 1233.5,826.5 Z"/></g>
<g><path style="opacity:1" fill="#0c0c0c" d="M 1001.5,899.5 C 1000.17,899.5 998.833,899.5 997.5,899.5C 997.5,898.5 997.5,897.5 997.5,896.5C 999.391,878.761 1001.89,861.094 1005,843.5C 1005.5,838.177 1005.67,832.844 1005.5,827.5C 1008.17,827.5 1010.83,827.5 1013.5,827.5C 1012.59,834.827 1012.09,842.161 1012,849.5C 1015.95,843.221 1020.28,837.221 1025,831.5C 1026.72,829.443 1028.72,827.776 1031,826.5C 1038.86,831.741 1041.86,839.074 1040,848.5C 1038.09,865.077 1029.09,875.41 1013,879.5C 1010.9,878.713 1008.73,878.38 1006.5,878.5C 1005.77,885.476 1005.44,892.476 1005.5,899.5C 1004.17,899.5 1002.83,899.5 1001.5,899.5 Z"/></g>
<g><path style="opacity:1" fill="#0b0b0b" d="M 1186.5,827.5 C 1189.08,827.025 1191.08,827.692 1192.5,829.5C 1191.33,836.817 1190.5,844.151 1190,851.5C 1194.38,842.226 1200.55,834.393 1208.5,828C 1209.83,827.333 1211.17,827.333 1212.5,828C 1211.54,831.394 1211.21,834.894 1211.5,838.5C 1209.01,838.298 1206.68,838.798 1204.5,840C 1193.49,850.523 1187.82,863.356 1187.5,878.5C 1184.5,878.5 1181.5,878.5 1178.5,878.5C 1180.64,861.138 1183.31,844.138 1186.5,827.5 Z"/></g>
<g><path style="opacity:1" fill="#f7f7f7" d="M 1154.5,832.5 C 1161.54,831.528 1164.04,834.528 1162,841.5C 1157.23,846.805 1151.4,850.472 1144.5,852.5C 1144.07,844.03 1147.4,837.364 1154.5,832.5 Z"/></g>
<g><path style="opacity:1" fill="#f5f5f5" d="M 1232.5,832.5 C 1239.49,830.996 1242.33,833.663 1241,840.5C 1236.69,846.585 1230.85,850.585 1223.5,852.5C 1222.68,844.145 1225.68,837.479 1232.5,832.5 Z"/></g>
<g><path style="opacity:1" fill="#fafafa" d="M 971.5,833.5 C 974.187,833.336 976.854,833.503 979.5,834C 980.701,834.903 981.535,836.069 982,837.5C 983.919,849.24 981.752,860.074 975.5,870C 971.858,872.408 967.858,873.075 963.5,872C 962.107,870.829 961.273,869.329 961,867.5C 959.455,857.714 960.788,848.381 965,839.5C 967.063,837.266 969.229,835.266 971.5,833.5 Z"/></g>
<g><path style="opacity:1" fill="#f9f9f9" d="M 1027.5,836.5 C 1028.82,836.33 1029.99,836.663 1031,837.5C 1034.5,850.331 1031.67,861.497 1022.5,871C 1017.89,872.827 1013.22,872.993 1008.5,871.5C 1011.85,858.168 1018.18,846.502 1027.5,836.5 Z"/></g>
<g><path style="opacity:1" fill="#9b9b9b" d="M 1079.5,846.5 C 1091.66,845.505 1103.99,845.171 1116.5,845.5C 1116.74,846.791 1116.4,847.791 1115.5,848.5C 1103.88,846.521 1091.88,845.854 1079.5,846.5 Z"/></g>
<g><path style="opacity:1" fill="#050505" d="M 492.5,883.5 C 506.87,883.153 521.203,883.653 535.5,885C 539.608,886.027 543.608,887.36 547.5,889C 551.611,892.452 551.278,895.452 546.5,898C 523.917,904.875 501.25,905.209 478.5,899C 472.022,897.072 471.022,893.739 475.5,889C 481.137,886.682 486.803,884.849 492.5,883.5 Z"/></g>
<g><path style="opacity:1" fill="#929292" d="M 997.5,896.5 C 997.5,897.5 997.5,898.5 997.5,899.5C 998.833,899.5 1000.17,899.5 1001.5,899.5C 1000.08,900.451 998.415,900.784 996.5,900.5C 996.232,898.901 996.566,897.568 997.5,896.5 Z"/></g>
</svg>
